<svg width="512" height="512" viewBox="0 0 512 512" fill="none" xmlns="http://www.w3.org/2000/svg">
  <rect width="512" height="512" rx="92" fill="url(#bg)"/>
  <g filter="url(#shadow)">
    <rect x="125" y="263" width="262" height="92" rx="24" fill="url(#violet)"/>
    <rect x="123" y="247" width="266" height="18" rx="9" fill="#A970FF" fill-opacity=".6"/>
    <rect x="124" y="187" width="264" height="94" rx="24" fill="url(#blue)"/>
    <rect x="122" y="171" width="268" height="18" rx="9" fill="#74F2FF" fill-opacity=".62"/>
    <path d="M256 84.2L377.9 167.5C384.7 172.2 388.8 179.9 388.8 188.2V220.9C388.8 235.4 377 247.2 362.5 247.2H149.5C135 247.2 123.2 235.4 123.2 220.9V188.2C123.2 179.9 127.3 172.2 134.1 167.5L256 84.2Z" fill="url(#whiteTop)"/>
    <path d="M123.2 220.4V193.8C123.2 208.3 135 220.1 149.5 220.1H362.5C377 220.1 388.8 208.3 388.8 193.8V220.4C388.8 234.9 377 246.7 362.5 246.7H149.5C135 246.7 123.2 234.9 123.2 220.4Z" fill="url(#whiteEdge)"/>
  </g>
  <defs>
    <linearGradient id="bg" x1="57" y1="38" x2="452" y2="477" gradientUnits="userSpaceOnUse">
      <stop stop-color="#111B48"/>
      <stop offset=".58" stop-color="#09112D"/>
      <stop offset="1" stop-color="#050A1C"/>
    </linearGradient>
    <linearGradient id="violet" x1="138" y1="276" x2="382" y2="350" gradientUnits="userSpaceOnUse">
      <stop stop-color="#8F46FF"/>
      <stop offset=".45" stop-color="#5D25F0"/>
      <stop offset="1" stop-color="#7A2CFF"/>
    </linearGradient>
    <linearGradient id="blue" x1="135" y1="199" x2="379" y2="273" gradientUnits="userSpaceOnUse">
      <stop stop-color="#1ECFFF"/>
      <stop offset=".42" stop-color="#167BFF"/>
      <stop offset="1" stop-color="#2359FF"/>
    </linearGradient>
    <linearGradient id="whiteTop" x1="157" y1="93" x2="352" y2="248" gradientUnits="userSpaceOnUse">
      <stop stop-color="#FFFFFF"/>
      <stop offset=".72" stop-color="#F5F8FF"/>
      <stop offset="1" stop-color="#EEF2FF"/>
    </linearGradient>
    <linearGradient id="whiteEdge" x1="123" y1="194" x2="389" y2="194" gradientUnits="userSpaceOnUse">
      <stop stop-color="#DCE6FF"/>
      <stop offset=".5" stop-color="#FFFFFF"/>
      <stop offset="1" stop-color="#C9D7FF"/>
    </linearGradient>
    <filter id="shadow" x="88.2" y="65.2" width="335.6" height="330.8" filterUnits="userSpaceOnUse" color-interpolation-filters="sRGB">
      <feFlood flood-opacity="0" result="BackgroundImageFix"/>
      <feColorMatrix in="SourceAlpha" type="matrix" values="0 0 0 0 0 0 0 0 0 0 0 0 0 0 0 0 0 0 127 0" result="hardAlpha"/>
      <feOffset dy="14"/>
      <feGaussianBlur stdDeviation="17.5"/>
      <feComposite in2="hardAlpha" operator="out"/>
      <feColorMatrix type="matrix" values="0 0 0 0 0.0196078 0 0 0 0 0.0392157 0 0 0 0 0.117647 0 0 0 0.32 0"/>
      <feBlend mode="normal" in2="BackgroundImageFix" result="effect1_dropShadow_0_1"/>
      <feBlend mode="normal" in="SourceGraphic" in2="effect1_dropShadow_0_1" result="shape"/>
    </filter>
  </defs>
</svg>
